<?xml version="1.0" encoding="iso-8859-1"?>
<!-- Generator: Adobe Illustrator 19.0.0, SVG Export Plug-In . SVG Version: 6.00 Build 0)  -->
<svg xmlns="http://www.w3.org/2000/svg" xmlns:xlink="http://www.w3.org/1999/xlink" version="1.1" id="Layer_1" x="0px" y="0px" viewBox="0 0 512 512" style="enable-background:new 0 0 512 512;" xml:space="preserve">
<path style="fill:#9BDDD1;" d="M399.334,364.428c12.589,13.348,19.74,28.647,19.74,44.929c0,51.99-73.014,94.129-163.07,94.129  c-90.069,0-163.082-42.139-163.082-94.129c0-16.282,7.152-31.582,19.753-44.929"/>
<polygon style="fill:#23CE9E;" points="400.487,133.922 256.02,217.324 111.542,133.911 256.02,50.509 "/>
<path style="fill:#EA9B22;" d="M348.067,310.681c32.019,15.3,52.416,38.409,52.416,64.277c0,46.06-64.685,83.402-144.478,83.402  c-79.804,0-144.489-37.343-144.489-83.402c0-25.879,20.419-49.011,52.472-64.311L348.067,310.681z"/>
<path style="fill:#F2C07E;" d="M256.004,429.984c-33.205,0-65.276-7.518-87.986-20.628c-17.876-10.319-28.127-22.856-28.127-34.398  c0-9.491,7.219-19.839,19.627-28.882c5.178-3.774,10.819-6.867,16.699-9.413l79.789-34.556l79.803,34.579  c5.885,2.55,11.532,5.647,16.713,9.428c12.382,9.035,19.585,19.368,19.585,28.843c0,11.541-10.252,24.08-28.127,34.398  C321.27,422.465,289.204,429.984,256.004,429.984z"/>
<polygon style="fill:#8FCC51;" points="400.487,133.922 376.322,291.09 256.009,374.503 255.997,374.492 256.02,217.324 "/>
<polygon style="fill:#DB2A78;" points="256.02,217.324 255.997,374.492 135.718,291.033 111.542,133.911 "/>
<path d="M364.35,309.75l16.819-11.66c1.919-1.331,3.208-3.393,3.564-5.702l8.751-56.92c0.714-4.647-2.474-8.993-7.12-9.708  c-4.64-0.708-8.993,2.473-9.708,7.12l-8.195,53.302L264.516,358.25l0.017-136.013l124.84-72.072l-7.328,47.66  c-0.714,4.647,2.474,8.993,7.12,9.708c4.65,0.709,8.993-2.474,9.708-7.12l10.023-65.196c0.497-3.237-0.906-6.472-3.608-8.32  c-0.126-0.086-0.262-0.15-0.392-0.229c-0.053-0.039-0.1-0.083-0.158-0.117L260.276,43.137c-2.633-1.521-5.878-1.52-8.512,0  l-144.483,83.401c-3.042,1.755-4.692,5.197-4.159,8.667L127.3,292.326c0.355,2.307,1.642,4.369,3.562,5.699l16.84,11.685  c-22.904,13.681-37.786,31.336-42.803,50.624c-13.4,14.881-20.487,31.782-20.487,49.024c0,28.314,18.475,54.571,52.023,73.934  C168.509,501.805,210.974,512,256.007,512c45.027,0,87.488-10.195,119.562-28.708c33.547-19.364,52.021-45.62,52.021-73.934  c0-17.245-7.089-34.152-20.494-49.044C402.074,341.054,387.213,323.42,364.35,309.75z M122.651,150.156l36.991,21.356  c1.342,0.774,2.805,1.142,4.248,1.142c2.942,0,5.803-1.528,7.38-4.258c2.351-4.071,0.956-9.278-3.116-11.628l-39.589-22.856  l127.454-73.573l127.439,73.582L256.02,207.493l-62.745-36.223c-4.074-2.351-9.279-0.957-11.628,3.116  c-2.351,4.071-0.956,9.278,3.116,11.628l62.745,36.223l-0.017,135.992l-103.919-72.106L122.651,150.156z M367.055,468.546  c-29.526,17.043-68.964,26.428-111.05,26.428c-42.091,0-81.534-9.386-111.062-26.429c-28.057-16.193-43.508-37.213-43.508-59.187  c0-6.322,1.268-12.528,3.756-18.587c5.4,19.298,20.689,36.853,44.387,50.533c1.34,0.774,2.804,1.142,4.247,1.142  c2.942,0,5.803-1.528,7.38-4.259c2.351-4.071,0.956-9.278-3.117-11.628c-24.544-14.167-38.061-32.494-38.061-51.601  c0-20.477,15.697-40.136,43.249-54.441l87.673,60.833c1.488,1.102,3.27,1.667,5.065,1.667c1.682,0,3.377-0.497,4.848-1.516  l87.91-60.95c27.52,14.303,43.199,33.949,43.199,54.407c0,19.107-13.516,37.432-38.06,51.601  c-26.015,15.018-60.785,23.289-97.905,23.289c-26.725,0-52.634-4.361-74.926-12.61c-4.416-1.632-9.306,0.621-10.939,5.029  c-1.632,4.41,0.621,9.306,5.029,10.938c24.164,8.942,52.116,13.669,80.836,13.669c40.062,0,77.855-9.08,106.417-25.569  c23.697-13.679,38.986-31.237,44.385-50.535c2.487,6.06,3.755,12.266,3.755,18.588C410.561,431.332,395.11,452.352,367.055,468.546z  "/>
<path d="M487.476,78.721c-4.48-1.431-9.27,1.04-10.701,5.517l-15.386,48.145c-1.431,4.479,1.04,9.27,5.517,10.7  c0.863,0.276,1.734,0.406,2.594,0.406c3.604,0,6.951-2.308,8.108-5.924l15.387-48.145C494.424,84.942,491.953,80.152,487.476,78.721  z"/>
<path d="M461.163,161.053c-4.48-1.431-9.269,1.039-10.701,5.517l-44.058,137.864c-1.432,4.479,1.039,9.27,5.516,10.7  c0.863,0.276,1.734,0.406,2.594,0.406c3.604,0,6.951-2.307,8.108-5.924l44.059-137.864  C468.112,167.275,465.641,162.484,461.163,161.053z"/>
<path d="M79.591,251.029c4.478-1.431,6.949-6.221,5.516-10.7L35.224,84.239c-1.431-4.48-6.227-6.949-10.7-5.517  c-4.478,1.431-6.949,6.221-5.516,10.7l49.883,156.091c1.155,3.617,4.503,5.924,8.106,5.924  C77.857,251.435,78.731,251.305,79.591,251.029z"/>
<path d="M97.486,315.541c0.859,0,1.732-0.131,2.594-0.406c4.478-1.431,6.949-6.222,5.516-10.7L92.98,264.959  c-1.431-4.479-6.226-6.949-10.7-5.517c-4.478,1.431-6.949,6.222-5.516,10.7l12.616,39.475  C90.535,313.234,93.882,315.541,97.486,315.541z"/>
<path d="M354.092,72.205c0.893,0.297,1.801,0.439,2.693,0.439c3.564,0,6.885-2.256,8.075-5.823l11.35-34.051  c1.487-4.461-0.923-9.281-5.383-10.768c-4.462-1.487-9.282,0.924-10.768,5.385l-11.35,34.051  C347.222,65.898,349.632,70.718,354.092,72.205z"/>
<path d="M147.159,66.822c1.19,3.567,4.511,5.823,8.075,5.823c0.892,0,1.8-0.142,2.693-0.439c4.461-1.487,6.87-6.307,5.383-10.768  l-11.35-34.051c-1.488-4.461-6.306-6.87-10.768-5.385c-4.461,1.487-6.87,6.307-5.383,10.768L147.159,66.822z"/>
<path d="M256.02,30.646c4.702,0,8.513-3.811,8.513-8.513V8.513c0-4.701-3.81-8.513-8.513-8.513c-4.702,0-8.513,3.811-8.513,8.513  v13.62C247.507,26.834,251.318,30.646,256.02,30.646z"/>
<g>
</g>
<g>
</g>
<g>
</g>
<g>
</g>
<g>
</g>
<g>
</g>
<g>
</g>
<g>
</g>
<g>
</g>
<g>
</g>
<g>
</g>
<g>
</g>
<g>
</g>
<g>
</g>
<g>
</g>
</svg>
